<svg width="709" height="638" viewBox="0 0 709 638" fill="none" xmlns="http://www.w3.org/2000/svg">
<path d="M162 192.01L260.472 170.995H402.272V290.087H154.122L162 192.01Z" fill="white"/>
<path d="M318.545 281.43C346.826 281.43 369.75 262.611 369.75 239.397C369.75 216.183 346.826 197.364 318.545 197.364C290.265 197.364 267.341 216.183 267.341 239.397C267.341 262.611 290.265 281.43 318.545 281.43Z" fill="black"/>
<path d="M294.059 134.344C327.669 134.344 357.254 141.817 382.797 156.762C408.341 171.707 427.501 192.034 440.274 217.739C453.717 242.845 458.425 270.641 454.39 301.127L151.881 315.472V318.167C151.881 349.252 158.944 378.248 173.06 405.147C187.177 431.449 206.672 452.672 231.545 468.812C256.415 484.354 284.65 492.127 316.244 492.127C339.1 492.127 359.938 488.24 378.761 480.47C397.582 472.099 413.383 462.828 426.156 452.665L447.33 468.812C437.244 481.962 423.127 495.411 404.978 509.161C387.498 522.911 367.335 534.57 344.479 544.134C321.624 553.099 297.086 557.583 270.87 557.583C233.226 557.583 199.943 548.32 171.037 529.788C142.132 511.257 119.281 486.743 102.476 456.258C86.3419 425.771 78.273 392.89 78.273 357.622C78.273 313.982 88.0197 275.419 107.514 241.943C127.009 207.87 152.888 181.268 185.154 162.139C218.093 143.01 254.396 133.746 294.059 134.344ZM269.854 180.973C240.95 180.974 216.412 190.537 196.247 209.665C176.753 228.795 163.642 252.112 156.92 279.611L364.643 265.259C364.641 242.542 355.23 222.817 336.41 206.08C317.585 189.342 295.399 180.973 269.854 180.973Z" fill="url(#paint0_linear_2016_191)"/>
<mask id="mask0_2016_191" style="mask-type:luminance" maskUnits="userSpaceOnUse" x="70" y="127" width="395" height="442">
<path d="M464.284 127.311H70.3948V568.653H464.284V127.311Z" fill="white"/>
<path d="M294.059 134.344C327.669 134.344 357.254 141.817 382.797 156.762C408.341 171.707 427.501 192.034 440.274 217.739C453.717 242.845 458.425 270.641 454.39 301.127L151.881 315.472V318.167C151.881 349.252 158.944 378.248 173.06 405.147C187.177 431.449 206.672 452.672 231.545 468.812C256.415 484.354 284.65 492.127 316.244 492.127C339.1 492.127 359.938 488.24 378.761 480.47C397.582 472.099 413.383 462.828 426.156 452.665L447.33 468.812C437.244 481.962 423.127 495.411 404.978 509.161C387.498 522.911 367.335 534.57 344.479 544.134C321.624 553.099 297.086 557.583 270.87 557.583C233.226 557.583 199.943 548.32 171.037 529.788C142.132 511.257 119.281 486.743 102.476 456.258C86.3419 425.771 78.273 392.89 78.273 357.622C78.273 313.982 88.0197 275.419 107.514 241.943C127.009 207.87 152.888 181.268 185.154 162.139C218.093 143.01 254.396 133.746 294.059 134.344ZM269.854 180.973C240.95 180.974 216.412 190.537 196.247 209.665C176.753 228.795 163.642 252.112 156.92 279.611L364.643 265.259C364.641 242.542 355.23 222.817 336.41 206.08C317.585 189.342 295.399 180.973 269.854 180.973Z" fill="black"/>
</mask>
<g mask="url(#mask0_2016_191)">
<path d="M294.057 134.34L293.923 141.344L293.99 141.346H294.057V134.34ZM440.274 217.736L433.068 220.565L433.113 220.656L433.16 220.747L440.274 217.736ZM454.39 301.123L454.811 308.118L461.439 307.804L462.214 301.942L454.39 301.123ZM151.882 315.468L151.461 308.474L144.003 308.827V315.468H151.882ZM173.06 405.144L165.921 408.105L165.951 408.162L173.06 405.144ZM231.545 468.809L226.9 474.468L226.955 474.505L227.013 474.541L231.545 468.809ZM378.759 480.468L382.076 486.82L382.179 486.777L382.282 486.733L378.759 480.468ZM426.157 452.663L431.285 447.344L426.047 443.35L420.904 447.442L426.157 452.663ZM447.328 468.809L453.837 472.756L457.81 467.574L452.456 463.491L447.328 468.809ZM404.977 509.16L399.869 503.826L399.814 503.867L399.758 503.91L404.977 509.16ZM344.48 544.131L347.657 550.54L347.745 550.506L347.834 550.469L344.48 544.131ZM102.476 456.255L95.3474 459.237L95.3742 459.289L95.4016 459.338L102.476 456.255ZM107.514 241.94L114.51 245.16L114.536 245.116L107.514 241.94ZM185.154 162.136L180.846 156.27L180.784 156.307L185.154 162.136ZM196.247 209.662L190.499 204.871L190.455 204.914L190.41 204.958L196.247 209.662ZM156.92 279.607L149.222 278.12L146.972 287.321L157.53 286.592L156.92 279.607ZM364.643 265.255L365.254 272.239L372.519 271.736V265.252L364.643 265.255ZM294.057 134.34V141.346C326.291 141.346 354.335 148.493 378.469 162.611L382.798 156.759L387.129 150.906C360.17 135.135 329.049 127.335 294.057 127.335V134.34ZM382.798 156.759L378.469 162.611C402.704 176.79 420.886 196.051 433.068 220.565L440.274 217.736L447.478 214.904C434.117 188.011 413.981 166.617 387.129 150.906L382.798 156.759ZM440.274 217.736L433.16 220.747C445.901 244.54 450.445 270.989 446.567 300.305L454.39 301.123L462.214 301.942C466.402 270.285 461.531 241.141 447.386 214.724L440.274 217.736ZM454.39 301.123L453.971 294.128L151.461 308.474L151.882 315.468L152.3 322.465L454.811 308.118L454.39 301.123ZM151.882 315.468H144.003V318.163H151.882H159.759V315.468H151.882ZM151.882 318.163H144.003C144.003 350.224 151.295 380.235 165.921 408.105L173.06 405.144L180.199 402.181C166.591 376.253 159.759 348.274 159.759 318.163H151.882ZM173.06 405.144L165.951 408.162C180.592 435.443 200.904 457.598 226.9 474.468L231.545 468.809L236.188 463.15C212.439 447.739 193.761 427.449 180.169 402.126L173.06 405.144ZM231.545 468.809L227.013 474.541C253.266 490.945 283.097 499.129 316.244 499.129V492.123V485.117C286.204 485.117 259.565 477.756 236.074 463.077L231.545 468.809ZM316.244 492.123V499.129C340.127 499.129 362.114 495.062 382.076 486.82L378.759 480.468L375.441 474.113C357.761 481.413 338.071 485.117 316.244 485.117V492.123ZM378.759 480.468L382.282 486.733C401.595 478.145 418.014 468.544 431.409 457.884L426.157 452.663L420.904 447.442C408.756 457.109 393.568 466.048 375.235 474.2L378.759 480.468ZM426.157 452.663L421.028 457.981L442.199 474.126L447.328 468.809L452.456 463.491L431.285 447.344L426.157 452.663ZM447.328 468.809L440.82 464.862C431.238 477.358 417.65 490.357 399.869 503.826L404.977 509.16L410.086 514.491C428.605 500.463 443.252 486.56 453.837 472.756L447.328 468.809ZM404.977 509.16L399.758 503.91C382.884 517.185 363.358 528.488 341.124 537.792L344.48 544.131L347.834 550.469C371.31 540.645 392.116 528.63 410.198 514.406L404.977 509.16ZM344.48 544.131L341.3 537.721C319.495 546.274 296.046 550.573 270.87 550.575V557.579V564.586C298.126 564.586 323.753 559.92 347.657 550.54L344.48 544.131ZM270.87 557.579V550.575C234.778 550.575 203.13 541.723 175.644 524.1L171.037 529.786L166.43 535.468C196.756 554.91 231.671 564.586 270.87 564.586V557.579ZM171.037 529.786L175.644 524.1C147.864 506.292 125.827 482.701 109.549 453.172L102.476 456.255L95.4016 459.338C112.735 490.78 136.4 516.215 166.43 535.468L171.037 529.786ZM102.476 456.255L109.604 453.271C93.9866 423.763 86.1507 391.904 86.1507 357.618H78.273H70.3948C70.3954 393.869 78.6972 427.774 95.3474 459.237L102.476 456.255ZM78.273 357.618H86.1507C86.1507 314.922 95.6799 277.495 114.51 245.16L107.514 241.94L100.519 238.718C80.3589 273.337 70.3948 313.035 70.3948 357.618H78.273ZM107.514 241.94L114.536 245.116C133.485 211.996 158.501 186.356 189.523 167.965L185.154 162.136L180.784 156.307C147.274 176.173 120.532 203.737 100.493 238.762L107.514 241.94ZM185.154 162.136L189.462 168.002C221.069 149.645 255.824 140.771 293.923 141.344L294.057 134.34L294.19 127.335C252.969 126.714 215.115 136.369 180.846 156.27L185.154 162.136ZM269.854 180.97V173.965C238.724 173.965 212.122 184.361 190.499 204.871L196.247 209.662L201.994 214.454C220.705 196.706 243.176 187.976 269.856 187.976L269.854 180.97ZM196.247 209.662L190.41 204.958C169.907 225.077 156.21 249.533 149.222 278.12L156.92 279.607L164.618 281.096C171.074 254.684 183.599 232.507 202.085 214.365L196.247 209.662ZM156.92 279.607L157.53 286.592L365.254 272.239L364.643 265.255L364.033 258.271L156.309 272.624L156.92 279.607ZM364.643 265.255L372.519 265.252C372.519 240.595 362.209 219.113 341.979 201.124L336.408 206.077L330.839 211.031C348.252 226.517 356.765 244.482 356.765 265.255H364.643ZM336.408 206.077L341.979 201.124C321.748 183.133 297.585 173.965 269.854 173.965V180.97L269.856 187.976C293.214 187.976 313.423 195.545 330.839 211.031L336.408 206.077Z" fill="black"/>
</g>
<path d="M172.695 592.646H182.234L183.33 595.697L181.934 596.133L181.074 594.014H176.477V597.6H180.494V598.967H176.477L176.455 602.95H181.504L182.364 600.829L183.76 601.265L182.664 604.316H172.674V602.95H174.736L174.758 594.014H172.695V592.646ZM185.284 604.316V602.95H187.324V594.014H185.284V592.646H190.762C192.295 592.646 193.462 592.91 194.264 593.439C195.08 593.954 195.489 594.707 195.489 595.697C195.489 596.227 195.331 596.728 195.016 597.204C194.715 597.665 194.293 598.03 193.749 598.293C194.35 598.491 194.859 598.834 195.274 599.323C195.689 599.813 195.897 600.413 195.897 601.126C195.897 602.052 195.554 602.817 194.866 603.425C194.178 604.019 193.111 604.316 191.665 604.316H185.284ZM189.022 602.93H191.578C192.381 602.93 192.996 602.765 193.427 602.434C193.856 602.091 194.071 601.582 194.071 600.909C194.071 600.3 193.863 599.833 193.448 599.502C193.047 599.171 192.467 599.006 191.708 599.006H189.043L189.022 602.93ZM189.043 597.818H191.729C192.359 597.818 192.839 597.645 193.169 597.302C193.498 596.96 193.662 596.496 193.662 595.916C193.662 594.648 192.775 594.014 190.999 594.014H189.043V597.818ZM203.238 592.349C204.427 592.349 205.458 592.607 206.332 593.122C207.22 593.623 207.907 594.337 208.394 595.262C208.895 596.173 209.146 597.243 209.146 598.472C209.146 599.7 208.895 600.776 208.394 601.701C207.907 602.613 207.22 603.326 206.332 603.841C205.458 604.356 204.434 604.614 203.259 604.614C202.085 604.614 201.053 604.356 200.166 603.841C199.292 603.326 198.604 602.613 198.103 601.701C197.616 600.776 197.372 599.7 197.372 598.472C197.372 597.243 197.616 596.173 198.103 595.262C198.59 594.337 199.27 593.623 200.144 593.122C201.032 592.607 202.063 592.349 203.238 592.349ZM203.259 593.736C201.985 593.736 200.989 594.152 200.273 594.984C199.557 595.816 199.199 596.979 199.199 598.472C199.199 599.977 199.557 601.146 200.273 601.979C200.989 602.811 201.985 603.227 203.259 603.227C204.534 603.227 205.53 602.811 206.246 601.979C206.962 601.146 207.32 599.977 207.32 598.472C207.32 596.979 206.962 595.816 206.246 594.984C205.53 594.152 204.534 593.736 203.259 593.736ZM210.881 604.316V602.95H212.9V594.014H210.881V592.646H216.574C217.734 592.646 218.651 592.779 219.324 593.043C220.012 593.306 220.499 593.702 220.785 594.231C221.086 594.746 221.236 595.394 221.236 596.173C221.236 597.336 220.892 598.228 220.205 598.848C219.517 599.456 218.308 599.76 216.574 599.76H214.619V602.95H215.972V604.316H210.881ZM214.641 598.353H216.574C217.191 598.353 217.706 598.299 218.121 598.194C218.538 598.089 218.851 597.883 219.066 597.58C219.296 597.263 219.41 596.801 219.41 596.193C219.41 595.585 219.296 595.129 219.066 594.826C218.851 594.509 218.538 594.297 218.121 594.192C217.706 594.073 217.191 594.014 216.574 594.014H214.641V598.353ZM219.496 604.316L216.724 599.66L218.551 599.462L220.742 602.95H222.697V604.316H219.496ZM223.498 604.316V602.95H225.561L229.127 594.014H226.957V592.646H231.126L235.014 602.95H237.056V604.316H231.835V602.95H233.188L232.501 601.146H227.86L227.13 602.95H228.504V604.316H223.498ZM228.397 599.779H231.985L230.287 594.648L228.397 599.779ZM239.167 606.714L238.415 606.12C238.415 606.12 238.474 606.034 238.587 605.862C238.703 605.703 238.839 605.5 238.996 605.248C239.155 605.01 239.29 604.772 239.404 604.535C239.032 604.508 238.738 604.382 238.522 604.158C238.308 603.934 238.201 603.676 238.201 603.385C238.201 603.015 238.329 602.717 238.587 602.494C238.86 602.269 239.198 602.157 239.597 602.157C239.984 602.157 240.321 602.29 240.607 602.553C240.907 602.817 241.058 603.134 241.058 603.504C241.058 603.887 240.966 604.263 240.779 604.633C240.594 605.016 240.371 605.367 240.113 605.684C239.87 606.001 239.649 606.252 239.447 606.437C239.262 606.621 239.167 606.714 239.167 606.714ZM253.087 604.614C252.071 604.614 251.184 604.529 250.423 604.356C249.68 604.183 249.057 604.013 248.554 603.841L248.146 601.424L249.564 601.305L249.865 602.791C250.294 602.924 250.745 603.034 251.218 603.128C251.706 603.22 252.322 603.267 253.066 603.267C253.597 603.267 254.084 603.201 254.527 603.068C254.987 602.924 255.352 602.698 255.623 602.394C255.91 602.077 256.052 601.656 256.052 601.126C256.052 600.597 255.902 600.142 255.601 599.76C255.3 599.377 254.729 599.131 253.882 599.026L252.25 598.808C251.018 598.636 250.073 598.259 249.414 597.679C248.769 597.098 248.447 596.371 248.447 595.499C248.447 594.905 248.606 594.37 248.919 593.895C249.25 593.419 249.751 593.043 250.423 592.765C251.098 592.488 251.949 592.349 252.98 592.349C253.538 592.349 254.033 592.369 254.462 592.409C254.907 592.448 255.331 592.513 255.73 592.607C256.147 592.699 256.589 592.83 257.062 593.003L257.427 595.46L256.009 595.599L255.73 594.014C255.444 593.908 255.073 593.829 254.613 593.775C254.155 593.71 253.618 593.677 253.002 593.677C252.086 593.677 251.355 593.829 250.81 594.132C250.281 594.435 250.015 594.879 250.015 595.46C250.015 596.014 250.208 596.445 250.595 596.748C250.997 597.051 251.549 597.249 252.25 597.342L254.204 597.619C255.423 597.792 256.318 598.168 256.89 598.749C257.479 599.329 257.771 600.051 257.771 600.909C257.771 601.517 257.642 602.058 257.384 602.533C257.142 602.995 256.804 603.379 256.374 603.682C255.945 603.985 255.444 604.218 254.871 604.376C254.312 604.535 253.719 604.614 253.087 604.614ZM259.558 592.646H269.098L270.193 595.697L268.797 596.133L267.938 594.014H263.34V597.6H267.357V598.967H263.34L263.318 602.95H268.367L269.227 600.829L270.624 601.265L269.528 604.316H259.537V602.95H261.6L261.621 594.014H259.558V592.646ZM272.146 604.316V602.95H274.188V594.014H272.146V592.646H277.625C279.157 592.646 280.324 592.91 281.127 593.439C281.944 593.954 282.352 594.707 282.352 595.697C282.352 596.227 282.193 596.728 281.879 597.204C281.578 597.665 281.155 598.03 280.611 598.293C281.213 598.491 281.72 598.834 282.137 599.323C282.551 599.813 282.76 600.413 282.76 601.126C282.76 602.052 282.416 602.817 281.729 603.425C281.041 604.019 279.973 604.316 278.527 604.316H272.146ZM275.885 602.93H278.442C279.243 602.93 279.86 602.765 280.289 602.434C280.719 602.091 280.934 601.582 280.934 600.909C280.934 600.3 280.725 599.833 280.311 599.502C279.909 599.171 279.329 599.006 278.57 599.006H275.906L275.885 602.93ZM275.906 597.818H278.592C279.221 597.818 279.7 597.645 280.032 597.302C280.36 596.96 280.526 596.496 280.526 595.916C280.526 594.648 279.636 594.014 277.861 594.014H275.906V597.818ZM282.582 604.316V602.95H284.644L288.211 594.014H286.041V592.646H290.209L294.097 602.95H296.139V604.316H290.918V602.95H292.271L291.584 601.146H286.943L286.213 602.95H287.588V604.316H282.582ZM287.48 599.779H291.068L289.371 594.648L287.48 599.779ZM302.225 604.614C301.209 604.614 300.322 604.529 299.561 604.356C298.818 604.183 298.195 604.013 297.692 603.841L297.284 601.424L298.702 601.305L299.003 602.791C299.432 602.924 299.884 603.034 300.356 603.128C300.844 603.22 301.46 603.267 302.204 603.267C302.735 603.267 303.222 603.201 303.665 603.068C304.125 602.924 304.49 602.698 304.76 602.394C305.049 602.077 305.19 601.656 305.19 601.126C305.19 600.597 305.04 600.142 304.739 599.76C304.438 599.377 303.867 599.131 303.02 599.026L301.388 598.808C300.157 598.636 299.211 598.259 298.552 597.679C297.907 597.098 297.585 596.371 297.585 595.499C297.585 594.905 297.744 594.37 298.057 593.895C298.388 593.419 298.889 593.043 299.561 592.765C300.236 592.488 301.087 592.349 302.118 592.349C302.676 592.349 303.171 592.369 303.6 592.409C304.045 592.448 304.468 592.513 304.868 592.607C305.285 592.699 305.727 592.83 306.2 593.003L306.565 595.46L305.147 595.599L304.868 594.014C304.582 593.908 304.21 593.829 303.751 593.775C303.293 593.71 302.756 593.677 302.139 593.677C301.224 593.677 300.494 593.829 299.948 594.132C299.42 594.435 299.153 594.879 299.153 595.46C299.153 596.014 299.346 596.445 299.733 596.748C300.135 597.051 300.687 597.249 301.388 597.342L303.342 597.619C304.561 597.792 305.457 598.168 306.028 598.749C306.617 599.329 306.909 600.051 306.909 600.909C306.909 601.517 306.78 602.058 306.522 602.533C306.28 602.995 305.942 603.379 305.512 603.682C305.083 603.985 304.582 604.218 304.008 604.376C303.45 604.535 302.857 604.614 302.225 604.614ZM307.667 592.646H318.732V595.896H317.099V594.014H314.07L314.027 602.95H316.068V604.316H310.267V602.95H312.308L312.329 594.014H309.3V595.896H307.667V592.646ZM320.32 592.646H326.121V594.014H324.123L324.08 602.95H326.121V604.316H320.298V602.95H322.382V594.014H320.32V592.646ZM327.124 604.316V602.95H329.187L332.753 594.014H330.583V592.646H334.751L338.64 602.95H340.681V604.316H335.46V602.95H336.814L336.126 601.146H331.486L330.755 602.95H332.13V604.316H327.124ZM332.023 599.779H335.611L333.913 594.648L332.023 599.779ZM341.721 592.646H346.469L351.948 601.899V594.014H350.143V592.646H355.751V594.014H353.666V604.316H351.561L345.459 594.014L345.502 602.95H347.307V604.316H341.699V602.95H343.762L343.74 594.014H341.721V592.646ZM362.512 592.646H369.129V594.014H366.701L366.658 602.95H370.719L371.557 600.849L372.975 601.285L371.836 604.316H362.512V602.95H364.961L364.982 594.014H362.512V592.646ZM384.216 600.057C384.216 601.418 383.838 602.519 383.077 603.365C382.318 604.198 381.116 604.614 379.468 604.614C377.893 604.614 376.739 604.198 376.008 603.365C375.293 602.519 374.934 601.418 374.934 600.057V594.014H372.872V592.646H378.028V594.014H376.653V600.592C376.653 601.517 376.911 602.196 377.426 602.633C377.942 603.054 378.623 603.267 379.468 603.267C380.385 603.267 381.116 603.034 381.659 602.573C382.218 602.097 382.497 601.37 382.497 600.394V594.014H381.122V592.646H386.278V594.014H384.216V600.057ZM387.67 592.646H393.472V594.014H391.473L391.431 602.95H393.472V604.316H387.649V602.95H389.733V594.014H387.67V592.646ZM400.125 604.614C399.109 604.614 398.22 604.529 397.461 604.356C396.716 604.183 396.093 604.013 395.592 603.841L395.184 601.424L396.602 601.305L396.902 602.791C397.333 602.924 397.784 603.034 398.256 603.128C398.744 603.22 399.358 603.267 400.104 603.267C400.634 603.267 401.12 603.201 401.565 603.068C402.023 602.924 402.388 602.698 402.661 602.394C402.946 602.077 403.09 601.656 403.09 601.126C403.09 600.597 402.94 600.142 402.639 599.76C402.338 599.377 401.765 599.131 400.92 599.026L399.287 598.808C398.056 598.636 397.111 598.259 396.451 597.679C395.807 597.098 395.484 596.371 395.484 595.499C395.484 594.905 395.642 594.37 395.957 593.895C396.286 593.419 396.789 593.043 397.461 592.765C398.134 592.488 398.986 592.349 400.018 592.349C400.577 592.349 401.071 592.369 401.5 592.409C401.945 592.448 402.366 592.513 402.768 592.607C403.183 592.699 403.627 592.83 404.1 593.003L404.465 595.46L403.047 595.599L402.768 594.014C402.482 593.908 402.108 593.829 401.651 593.775C401.193 593.71 400.656 593.677 400.039 593.677C399.122 593.677 398.391 593.829 397.848 594.132C397.317 594.435 397.053 594.879 397.053 595.46C397.053 596.014 397.246 596.445 397.633 596.748C398.035 597.051 398.585 597.249 399.287 597.342L401.243 597.619C402.461 597.792 403.354 598.168 403.928 598.749C404.515 599.329 404.809 600.051 404.809 600.909C404.809 601.517 404.68 602.058 404.423 602.533C404.179 602.995 403.842 603.379 403.413 603.682C402.983 603.985 402.482 604.218 401.908 604.376C401.35 604.535 400.755 604.614 400.125 604.614ZM411.965 604.316V602.95H413.985V594.014H411.965V592.646H417.659C418.819 592.646 419.737 592.779 420.409 593.043C421.097 593.306 421.585 593.702 421.87 594.231C422.171 594.746 422.322 595.394 422.322 596.173C422.322 597.336 421.978 598.228 421.29 598.848C420.603 599.456 419.393 599.76 417.659 599.76H415.704V602.95H417.058V604.316H411.965ZM415.725 598.353H417.659C418.275 598.353 418.791 598.299 419.206 598.194C419.621 598.089 419.937 597.883 420.152 597.58C420.381 597.263 420.495 596.801 420.495 596.193C420.495 595.585 420.381 595.129 420.152 594.826C419.937 594.509 419.621 594.297 419.206 594.192C418.791 594.073 418.275 594.014 417.659 594.014H415.725V598.353ZM420.581 604.316L417.81 599.66L419.636 599.462L421.827 602.95H423.782V604.316H420.581ZM424.584 604.316V602.95H426.646L430.213 594.014H428.043V592.646H432.211L436.099 602.95H438.141V604.316H432.92V602.95H434.273L433.586 601.146H428.945L428.215 602.95H429.59V604.316H424.584ZM429.482 599.779H433.07L431.373 594.648L429.482 599.779ZM435.722 592.646H440.856V594.014H439.718L442.704 597.897L446.056 594.014H444.444V592.646H449.536V594.014H448.075L443.499 599.224L443.456 602.95H445.475V604.316H439.739V602.95H441.759L441.78 599.284L437.526 594.014H435.722V592.646ZM450.699 592.646H455.447L459.056 601.146L462.622 592.646H467.199V594.014H465.179V602.95H467.199V604.316H462.086V602.95H463.461V594.014L462.494 596.589L459.872 602.91H458.025L455.275 596.55L454.287 594.014L454.222 602.95H455.64V604.316H450.612V602.95H452.675L452.696 594.014H450.699V592.646ZM479.911 600.057C479.911 601.418 479.533 602.519 478.773 603.365C478.014 604.198 476.811 604.614 475.163 604.614C473.588 604.614 472.435 604.198 471.704 603.365C470.989 602.519 470.63 601.418 470.63 600.057V594.014H468.567V592.646H473.724V594.014H472.349V600.592C472.349 601.517 472.607 602.196 473.122 602.633C473.638 603.054 474.319 603.267 475.163 603.267C476.081 603.267 476.811 603.034 477.355 602.573C477.914 602.097 478.193 601.37 478.193 600.394V594.014H476.817V592.646H481.974V594.014H479.911V600.057ZM483.366 592.646H488.114L493.593 601.899V594.014H491.788V592.646H497.396V594.014H495.312V604.316H493.206L487.104 594.014L487.147 602.95H488.952V604.316H483.345V602.95H485.407L485.386 594.014H483.366V592.646ZM504.479 592.646C506.529 592.646 508.125 593.182 509.271 594.251C510.418 595.307 510.989 596.781 510.989 598.67C510.989 600.439 510.431 601.826 509.313 602.83C508.196 603.821 506.643 604.316 504.651 604.316H498.764V602.95H500.805V594.014H498.764V592.646H504.479ZM504.265 602.95C505.885 602.95 507.101 602.587 507.917 601.86C508.749 601.132 509.163 600.071 509.163 598.67C509.163 597.138 508.764 595.981 507.96 595.202C507.173 594.41 506.013 594.014 504.479 594.014H502.524V602.95H504.265ZM518.732 592.349C519.923 592.349 520.954 592.607 521.826 593.122C522.716 593.623 523.403 594.337 523.889 595.262C524.391 596.173 524.641 597.243 524.641 598.472C524.641 599.7 524.391 600.776 523.889 601.701C523.403 602.613 522.716 603.326 521.826 603.841C520.954 604.356 519.929 604.614 518.754 604.614C517.581 604.614 516.549 604.356 515.66 603.841C514.788 603.326 514.1 602.613 513.598 601.701C513.112 600.776 512.867 599.7 512.867 598.472C512.867 597.243 513.112 596.173 513.598 595.262C514.085 594.337 514.766 593.623 515.638 593.122C516.528 592.607 517.559 592.349 518.732 592.349ZM518.754 593.736C517.48 593.736 516.485 594.152 515.768 594.984C515.052 595.816 514.693 596.979 514.693 598.472C514.693 599.977 515.052 601.146 515.768 601.979C516.485 602.811 517.48 603.227 518.754 603.227C520.03 603.227 521.025 602.811 521.741 601.979C522.458 601.146 522.815 599.977 522.815 598.472C522.815 596.979 522.458 595.816 521.741 594.984C521.025 594.152 520.03 593.736 518.754 593.736Z" fill="black"/>
<path d="M369.75 425.04C398.031 425.04 420.957 404.654 420.957 379.505C420.957 354.357 398.031 333.971 369.75 333.971C341.469 333.971 318.545 354.357 318.545 379.505C318.545 404.654 341.469 425.04 369.75 425.04Z" fill="white" stroke="black" stroke-width="3"/>
<path d="M356.311 388.16H365.58V390.221H367.896V392.281H377.165V390.221H379.483V386.099H377.165V384.039H363.264V381.979H358.629V377.857H356.311V365.495H358.629V361.374H363.264V359.314H381.799V361.374H386.433V365.495H388.749V371.677H379.483V369.616H377.165V367.556H367.896V369.616H365.58V373.735H367.896V375.798H381.799V377.857H386.433V381.979H388.749V394.339H386.433V398.461H381.799V400.522H363.264V398.461H358.629V394.339H356.311V388.16Z" fill="#36D036"/>
<path d="M511.55 425.04C539.83 425.04 562.757 404.654 562.757 379.505C562.757 354.357 539.83 333.971 511.55 333.971C483.269 333.971 460.345 354.357 460.345 379.505C460.345 404.654 483.269 425.04 511.55 425.04Z" fill="white" stroke="black" stroke-width="3"/>
<path d="M515.258 392.281H529.159V400.522H505.989V359.314H515.258V392.281Z" fill="#D03636"/>
<path d="M653.352 425.04C681.629 425.04 704.555 404.654 704.555 379.505C704.555 354.357 681.629 333.971 653.352 333.971C625.07 333.971 602.144 354.357 602.144 379.505C602.144 404.654 625.07 425.04 653.352 425.04Z" fill="white" stroke="black" stroke-width="3"/>
<path d="M649.182 379.917H658.446V377.857H660.764V369.616H658.446V367.556H649.182V379.917ZM656.129 388.16H649.182V400.522H639.911V359.314H663.082V361.374H667.717V365.495H670.035V381.979H667.717V384.039H665.399V386.099H667.717V388.16H670.035V400.522H660.764V392.281H658.446V390.221H656.129V388.16Z" fill="#3836D0"/>
<path d="M237.97 166.371C267.925 159.072 296.762 162.97 312.615 175.095L303.34 177.647C299.392 175.378 294.635 173.508 289.126 172.136C274.587 168.516 255.818 168.728 236.443 174.059C217.065 179.393 201.438 188.648 191.741 198.939C188.066 202.839 185.33 206.771 183.512 210.627L174.244 213.177C179.86 194.438 202.801 175.985 234.114 167.368L237.97 166.371Z" fill="#F0ED37"/>
<mask id="mask1_2016_191" style="mask-type:luminance" maskUnits="userSpaceOnUse" x="174" y="162" width="139" height="52">
<path d="M237.97 166.371C267.925 159.072 296.762 162.97 312.615 175.095L303.34 177.647C299.392 175.378 294.635 173.508 289.126 172.136C274.587 168.516 255.818 168.728 236.443 174.059C217.065 179.393 201.438 188.648 191.741 198.939C188.066 202.839 185.33 206.771 183.512 210.627L174.244 213.177C179.86 194.438 202.801 175.985 234.114 167.368L237.97 166.371Z" fill="white"/>
</mask>
<g mask="url(#mask1_2016_191)">
<path d="M237.97 166.37L235.888 159.614L235.831 159.628L235.771 159.643L237.97 166.37ZM312.615 175.095L314.944 181.787L328.553 178.042L317.752 169.783L312.615 175.095ZM303.34 177.647L299.065 183.531L302.154 185.307L305.669 184.34L303.34 177.647ZM183.512 210.627L185.841 217.32L189.355 216.354L190.777 213.336L183.512 210.627ZM174.244 213.177L166.632 211.374L162.965 223.615L176.574 219.87L174.244 213.177ZM234.114 167.368L231.914 160.64L231.85 160.657L231.785 160.675L234.114 167.368ZM237.97 166.37L240.053 173.127C268.533 166.187 294.317 170.34 307.478 180.406L312.615 175.095L317.752 169.783C299.206 155.6 267.314 151.956 235.888 159.614L237.97 166.37ZM312.615 175.095L310.286 168.403L301.011 170.956L303.34 177.647L305.669 184.34L314.944 181.787L312.615 175.095ZM303.34 177.647L307.615 171.764C302.909 169.058 297.406 166.922 291.251 165.39L289.126 172.136L287.001 178.881C291.865 180.093 295.874 181.697 299.065 183.531L303.34 177.647ZM289.126 172.136L291.251 165.39C275.049 161.356 254.72 161.697 234.114 167.368L236.443 174.059L238.772 180.752C256.916 175.759 274.127 175.676 287.001 178.881L289.126 172.136ZM236.443 174.059L234.114 167.368C213.506 173.039 196.511 182.971 185.703 194.439L191.741 198.939L197.778 203.439C206.367 194.325 220.626 185.746 238.772 180.752L236.443 174.059ZM191.741 198.939L185.703 194.439C181.598 198.795 178.412 203.322 176.246 207.919L183.512 210.627L190.777 213.336C192.247 210.217 194.534 206.88 197.778 203.439L191.741 198.939ZM183.512 210.627L181.183 203.934L171.915 206.486L174.244 213.177L176.574 219.87L185.841 217.32L183.512 210.627ZM174.244 213.177L181.857 214.982C186.524 199.402 206.635 182.263 236.443 174.059L234.114 167.368L231.785 160.675C198.967 169.707 173.195 189.473 166.632 211.374L174.244 213.177ZM234.114 167.368L236.311 174.094L240.17 173.097L237.97 166.37L235.771 159.643L231.914 160.64L234.114 167.368Z" fill="black"/>
</g>
<path d="M52.6463 38.5277C88.6405 8.89774 145.383 10.8834 179.114 42.9019L218.259 80.0597L56.4922 189.523L29.7162 164.101C12.9364 148.172 5.15385 127.965 5.8668 108.232C6.58063 88.4958 15.8068 68.8579 33.7134 54.1167L52.6463 38.5277Z" fill="#D28A31" stroke="black" stroke-width="3"/>
<path d="M38.7852 198.502L232.672 67.3142C238.877 63.1155 247.815 64.2281 252.634 69.7998L274.394 94.9613C280.422 101.932 276.926 112.146 267.491 115.021C223.44 128.449 190.023 143.313 161.071 163.22C132.127 183.122 107.797 207.962 81.7763 241.162C76.1621 248.325 64.2676 248.565 58.2939 241.656L36.2732 216.193C31.4542 210.622 32.5789 202.7 38.7852 198.502Z" fill="#D28A31" stroke="black" stroke-width="3"/>
<defs>
<linearGradient id="paint0_linear_2016_191" x1="442.212" y1="134.316" x2="96.3825" y2="565.967" gradientUnits="userSpaceOnUse">
<stop offset="0.431142" stop-color="#F0ED37"/>
<stop offset="1" stop-color="#BDBB2B"/>
</linearGradient>
</defs>
</svg>
